<mxfile host="app.diagrams.net" modified="2021-08-06T14:51:58.884Z" agent="5.0 (Windows NT 10.0; Win64; x64) AppleWebKit/537.36 (KHTML, like Gecko) Chrome/91.0.4472.124 Safari/537.36" etag="4drIB9yi-vqpXXc5uBf-" version="14.9.4" type="github" pages="2">
  <diagram id="zhRdC3SKSd5Bvl-OT3ro" name="Create-Account">
    <mxGraphModel dx="2279" dy="579" grid="1" gridSize="10" guides="1" tooltips="1" connect="1" arrows="1" fold="1" page="0" pageScale="1" pageWidth="850" pageHeight="1100" math="0" shadow="0">
      <root>
        <mxCell id="0" />
        <mxCell id="1" parent="0" />
        <mxCell id="StSuN4diZkL0jaW07aeI-16" style="edgeStyle=orthogonalEdgeStyle;rounded=0;orthogonalLoop=1;jettySize=auto;html=1;exitX=1;exitY=0.5;exitDx=0;exitDy=0;entryX=0;entryY=0.5;entryDx=0;entryDy=0;" edge="1" parent="1" source="StSuN4diZkL0jaW07aeI-17" target="StSuN4diZkL0jaW07aeI-19">
          <mxGeometry relative="1" as="geometry" />
        </mxCell>
        <mxCell id="StSuN4diZkL0jaW07aeI-17" value="use open gamil.com" style="rounded=0;whiteSpace=wrap;html=1;" vertex="1" parent="1">
          <mxGeometry x="-1160" y="270" width="120" height="60" as="geometry" />
        </mxCell>
        <mxCell id="StSuN4diZkL0jaW07aeI-18" style="edgeStyle=orthogonalEdgeStyle;rounded=0;orthogonalLoop=1;jettySize=auto;html=1;exitX=1;exitY=0.5;exitDx=0;exitDy=0;entryX=0;entryY=0.5;entryDx=0;entryDy=0;" edge="1" parent="1" source="StSuN4diZkL0jaW07aeI-19" target="StSuN4diZkL0jaW07aeI-23">
          <mxGeometry relative="1" as="geometry" />
        </mxCell>
        <mxCell id="StSuN4diZkL0jaW07aeI-19" value="sign in" style="rounded=0;whiteSpace=wrap;html=1;" vertex="1" parent="1">
          <mxGeometry x="-980" y="270" width="120" height="60" as="geometry" />
        </mxCell>
        <mxCell id="StSuN4diZkL0jaW07aeI-20" style="edgeStyle=orthogonalEdgeStyle;rounded=0;orthogonalLoop=1;jettySize=auto;html=1;exitX=1;exitY=0.5;exitDx=0;exitDy=0;entryX=0;entryY=0.5;entryDx=0;entryDy=0;" edge="1" parent="1" source="StSuN4diZkL0jaW07aeI-23" target="StSuN4diZkL0jaW07aeI-24">
          <mxGeometry relative="1" as="geometry">
            <Array as="points">
              <mxPoint x="-580" y="300" />
              <mxPoint x="-580" y="200" />
            </Array>
          </mxGeometry>
        </mxCell>
        <mxCell id="StSuN4diZkL0jaW07aeI-21" style="edgeStyle=orthogonalEdgeStyle;rounded=0;orthogonalLoop=1;jettySize=auto;html=1;entryX=0.071;entryY=0.333;entryDx=0;entryDy=0;entryPerimeter=0;" edge="1" parent="1" source="StSuN4diZkL0jaW07aeI-23" target="StSuN4diZkL0jaW07aeI-25">
          <mxGeometry relative="1" as="geometry" />
        </mxCell>
        <mxCell id="StSuN4diZkL0jaW07aeI-22" style="edgeStyle=orthogonalEdgeStyle;rounded=0;orthogonalLoop=1;jettySize=auto;html=1;entryX=0;entryY=0.25;entryDx=0;entryDy=0;" edge="1" parent="1" source="StSuN4diZkL0jaW07aeI-23" target="StSuN4diZkL0jaW07aeI-26">
          <mxGeometry relative="1" as="geometry">
            <Array as="points">
              <mxPoint x="-580" y="300" />
              <mxPoint x="-580" y="405" />
            </Array>
          </mxGeometry>
        </mxCell>
        <mxCell id="StSuN4diZkL0jaW07aeI-23" value="Create Account" style="rounded=0;whiteSpace=wrap;html=1;" vertex="1" parent="1">
          <mxGeometry x="-800" y="270" width="120" height="60" as="geometry" />
        </mxCell>
        <mxCell id="StSuN4diZkL0jaW07aeI-31" style="edgeStyle=orthogonalEdgeStyle;rounded=0;orthogonalLoop=1;jettySize=auto;html=1;entryX=0;entryY=0.5;entryDx=0;entryDy=0;" edge="1" parent="1" source="StSuN4diZkL0jaW07aeI-24" target="StSuN4diZkL0jaW07aeI-28">
          <mxGeometry relative="1" as="geometry" />
        </mxCell>
        <mxCell id="StSuN4diZkL0jaW07aeI-24" value="For Myself" style="rounded=0;whiteSpace=wrap;html=1;" vertex="1" parent="1">
          <mxGeometry x="-530" y="170" width="140" height="60" as="geometry" />
        </mxCell>
        <mxCell id="StSuN4diZkL0jaW07aeI-32" style="edgeStyle=orthogonalEdgeStyle;rounded=0;orthogonalLoop=1;jettySize=auto;html=1;entryX=0;entryY=0.5;entryDx=0;entryDy=0;" edge="1" parent="1" source="StSuN4diZkL0jaW07aeI-25" target="StSuN4diZkL0jaW07aeI-29">
          <mxGeometry relative="1" as="geometry" />
        </mxCell>
        <mxCell id="StSuN4diZkL0jaW07aeI-25" value="For my child" style="rounded=0;whiteSpace=wrap;html=1;" vertex="1" parent="1">
          <mxGeometry x="-530" y="280" width="140" height="60" as="geometry" />
        </mxCell>
        <mxCell id="StSuN4diZkL0jaW07aeI-33" style="edgeStyle=orthogonalEdgeStyle;rounded=0;orthogonalLoop=1;jettySize=auto;html=1;exitX=1;exitY=0.5;exitDx=0;exitDy=0;" edge="1" parent="1" source="StSuN4diZkL0jaW07aeI-26" target="StSuN4diZkL0jaW07aeI-30">
          <mxGeometry relative="1" as="geometry" />
        </mxCell>
        <mxCell id="StSuN4diZkL0jaW07aeI-26" value="To manage my business" style="rounded=0;whiteSpace=wrap;html=1;" vertex="1" parent="1">
          <mxGeometry x="-530" y="390" width="140" height="60" as="geometry" />
        </mxCell>
        <mxCell id="StSuN4diZkL0jaW07aeI-27" value="Choice" style="text;html=1;strokeColor=none;fillColor=none;align=center;verticalAlign=middle;whiteSpace=wrap;rounded=0;" vertex="1" parent="1">
          <mxGeometry x="-660" y="270" width="40" height="20" as="geometry" />
        </mxCell>
        <mxCell id="StSuN4diZkL0jaW07aeI-28" value="Create Account Page will Open" style="rounded=0;whiteSpace=wrap;html=1;" vertex="1" parent="1">
          <mxGeometry x="-240" y="170" width="120" height="60" as="geometry" />
        </mxCell>
        <mxCell id="StSuN4diZkL0jaW07aeI-29" value="Disclaimer Page will Open" style="rounded=0;whiteSpace=wrap;html=1;" vertex="1" parent="1">
          <mxGeometry x="-240" y="280" width="120" height="60" as="geometry" />
        </mxCell>
        <mxCell id="StSuN4diZkL0jaW07aeI-30" value="Create Account page will Open" style="rounded=0;whiteSpace=wrap;html=1;" vertex="1" parent="1">
          <mxGeometry x="-240" y="390" width="120" height="60" as="geometry" />
        </mxCell>
      </root>
    </mxGraphModel>
  </diagram>
  <diagram id="BontfvZfqu9Qmogx2XUb" name="for_myself">
    <mxGraphModel dx="2279" dy="579" grid="1" gridSize="10" guides="1" tooltips="1" connect="1" arrows="1" fold="1" page="0" pageScale="1" pageWidth="850" pageHeight="1100" math="0" shadow="0">
      <root>
        <mxCell id="RYJDvF7E3K0kN_FNrF87-0" />
        <mxCell id="RYJDvF7E3K0kN_FNrF87-1" parent="RYJDvF7E3K0kN_FNrF87-0" />
        <mxCell id="RYJDvF7E3K0kN_FNrF87-4" style="edgeStyle=orthogonalEdgeStyle;rounded=0;orthogonalLoop=1;jettySize=auto;html=1;" edge="1" parent="RYJDvF7E3K0kN_FNrF87-1" source="RYJDvF7E3K0kN_FNrF87-2" target="RYJDvF7E3K0kN_FNrF87-3">
          <mxGeometry relative="1" as="geometry" />
        </mxCell>
        <mxCell id="RYJDvF7E3K0kN_FNrF87-2" value="Create Account For Myself" style="rounded=0;whiteSpace=wrap;html=1;" vertex="1" parent="RYJDvF7E3K0kN_FNrF87-1">
          <mxGeometry x="-910" y="330" width="120" height="60" as="geometry" />
        </mxCell>
        <mxCell id="RYJDvF7E3K0kN_FNrF87-10" style="edgeStyle=orthogonalEdgeStyle;rounded=0;orthogonalLoop=1;jettySize=auto;html=1;entryX=0;entryY=0.5;entryDx=0;entryDy=0;" edge="1" parent="RYJDvF7E3K0kN_FNrF87-1" source="RYJDvF7E3K0kN_FNrF87-3" target="RYJDvF7E3K0kN_FNrF87-9">
          <mxGeometry relative="1" as="geometry" />
        </mxCell>
        <mxCell id="RYJDvF7E3K0kN_FNrF87-3" value="fill the form details" style="rounded=0;whiteSpace=wrap;html=1;" vertex="1" parent="RYJDvF7E3K0kN_FNrF87-1">
          <mxGeometry x="-680" y="330" width="120" height="60" as="geometry" />
        </mxCell>
        <mxCell id="RYJDvF7E3K0kN_FNrF87-6" value="Form detail validation" style="rounded=0;whiteSpace=wrap;html=1;" vertex="1" parent="RYJDvF7E3K0kN_FNrF87-1">
          <mxGeometry x="-680" y="210" width="120" height="60" as="geometry" />
        </mxCell>
        <mxCell id="RYJDvF7E3K0kN_FNrF87-7" value="" style="endArrow=classic;startArrow=classic;html=1;exitX=0.5;exitY=0;exitDx=0;exitDy=0;entryX=0.5;entryY=1;entryDx=0;entryDy=0;" edge="1" parent="RYJDvF7E3K0kN_FNrF87-1" source="RYJDvF7E3K0kN_FNrF87-3" target="RYJDvF7E3K0kN_FNrF87-6">
          <mxGeometry width="50" height="50" relative="1" as="geometry">
            <mxPoint x="-650" y="320" as="sourcePoint" />
            <mxPoint x="-600" y="270" as="targetPoint" />
            <Array as="points" />
          </mxGeometry>
        </mxCell>
        <mxCell id="RYJDvF7E3K0kN_FNrF87-11" style="edgeStyle=orthogonalEdgeStyle;rounded=0;orthogonalLoop=1;jettySize=auto;html=1;" edge="1" parent="RYJDvF7E3K0kN_FNrF87-1" source="RYJDvF7E3K0kN_FNrF87-9">
          <mxGeometry relative="1" as="geometry">
            <mxPoint x="-270" y="360" as="targetPoint" />
          </mxGeometry>
        </mxCell>
        <mxCell id="RYJDvF7E3K0kN_FNrF87-9" value="enter mobile number for otp validation" style="rounded=0;whiteSpace=wrap;html=1;" vertex="1" parent="RYJDvF7E3K0kN_FNrF87-1">
          <mxGeometry x="-470" y="330" width="120" height="60" as="geometry" />
        </mxCell>
        <mxCell id="RYJDvF7E3K0kN_FNrF87-17" value="" style="edgeStyle=orthogonalEdgeStyle;rounded=0;orthogonalLoop=1;jettySize=auto;html=1;" edge="1" parent="RYJDvF7E3K0kN_FNrF87-1" source="RYJDvF7E3K0kN_FNrF87-13" target="RYJDvF7E3K0kN_FNrF87-16">
          <mxGeometry relative="1" as="geometry" />
        </mxCell>
        <mxCell id="RYJDvF7E3K0kN_FNrF87-22" style="edgeStyle=orthogonalEdgeStyle;rounded=0;orthogonalLoop=1;jettySize=auto;html=1;entryX=0.5;entryY=0;entryDx=0;entryDy=0;" edge="1" parent="RYJDvF7E3K0kN_FNrF87-1" source="RYJDvF7E3K0kN_FNrF87-13" target="RYJDvF7E3K0kN_FNrF87-9">
          <mxGeometry relative="1" as="geometry">
            <Array as="points">
              <mxPoint x="-230" y="170" />
              <mxPoint x="-410" y="170" />
            </Array>
          </mxGeometry>
        </mxCell>
        <mxCell id="RYJDvF7E3K0kN_FNrF87-13" value="decision" style="rhombus;whiteSpace=wrap;html=1;" vertex="1" parent="RYJDvF7E3K0kN_FNrF87-1">
          <mxGeometry x="-270" y="320" width="80" height="80" as="geometry" />
        </mxCell>
        <mxCell id="RYJDvF7E3K0kN_FNrF87-24" style="edgeStyle=orthogonalEdgeStyle;rounded=0;orthogonalLoop=1;jettySize=auto;html=1;entryX=0;entryY=0.5;entryDx=0;entryDy=0;" edge="1" parent="RYJDvF7E3K0kN_FNrF87-1" source="RYJDvF7E3K0kN_FNrF87-16" target="RYJDvF7E3K0kN_FNrF87-23">
          <mxGeometry relative="1" as="geometry" />
        </mxCell>
        <mxCell id="RYJDvF7E3K0kN_FNrF87-16" value="enter recovery details" style="rounded=0;whiteSpace=wrap;html=1;" vertex="1" parent="RYJDvF7E3K0kN_FNrF87-1">
          <mxGeometry x="-130" y="330" width="140" height="60" as="geometry" />
        </mxCell>
        <mxCell id="RYJDvF7E3K0kN_FNrF87-18" value="pass" style="text;html=1;strokeColor=none;fillColor=none;align=center;verticalAlign=middle;whiteSpace=wrap;rounded=0;" vertex="1" parent="RYJDvF7E3K0kN_FNrF87-1">
          <mxGeometry x="-190" y="330" width="40" height="20" as="geometry" />
        </mxCell>
        <mxCell id="RYJDvF7E3K0kN_FNrF87-19" value="fail" style="text;html=1;align=center;verticalAlign=middle;whiteSpace=wrap;rounded=0;strokeColor=#B8511D;fillColor=#F85332;" vertex="1" parent="RYJDvF7E3K0kN_FNrF87-1">
          <mxGeometry x="-220" y="210" width="60" height="20" as="geometry" />
        </mxCell>
        <mxCell id="RYJDvF7E3K0kN_FNrF87-23" value="sync your phone number to start all your google services" style="rounded=0;whiteSpace=wrap;html=1;" vertex="1" parent="RYJDvF7E3K0kN_FNrF87-1">
          <mxGeometry x="120" y="330" width="120" height="60" as="geometry" />
        </mxCell>
        <mxCell id="RYJDvF7E3K0kN_FNrF87-25" value="" style="rounded=0;whiteSpace=wrap;html=1;" vertex="1" parent="RYJDvF7E3K0kN_FNrF87-1">
          <mxGeometry x="390" y="250" width="120" height="60" as="geometry" />
        </mxCell>
        <mxCell id="RYJDvF7E3K0kN_FNrF87-26" value="" style="rounded=0;whiteSpace=wrap;html=1;" vertex="1" parent="RYJDvF7E3K0kN_FNrF87-1">
          <mxGeometry x="400" y="460" width="120" height="60" as="geometry" />
        </mxCell>
      </root>
    </mxGraphModel>
  </diagram>
</mxfile>
